<svg width="100" height="100" viewBox="0 0 100 100" fill="none" xmlns="http://www.w3.org/2000/svg">
<g clip-path="url(#clip0_50_32)">
<path fill-rule="evenodd" clip-rule="evenodd" d="M85.8579 0H60V25.8579L85.8579 0ZM40 0H14.1421L40 25.8579V0ZM0 14.1421V85.8579L25.8579 60H4.76837e-06V40H25.8579L0 14.1421ZM14.1421 100H40V74.1421L14.1421 100ZM60 100H85.8579L60 74.1422V100ZM100 85.8579L100 60H74.1421L100 85.8579ZM100 40L100 14.1421L74.1421 40H100Z" fill="black"/>
<path fill-rule="evenodd" clip-rule="evenodd" d="M100 0L96.4645 -3.53553L55 37.9289V0H45V45L-2.17075 -2.17075L-5.70627 1.36478L37.929 45H0V55H45V55.189L-3.38995 103.579L0.145569 107.115L45 62.2601V100H55V61.969L98.7808 105.75L102.316 102.214L55.1021 55H100V45H55L100 0Z" fill="black"/>
</g>
<defs>
<clipPath id="clip0_50_32">
<rect width="100" height="100" fill="white"/>
</clipPath>
</defs>
</svg>
