<svg width="16" height="16" viewBox="0 0 16 16" fill="none" xmlns="http://www.w3.org/2000/svg">
<path d="M3 6.36V4.44C4.432 4.44 6.056 4.42 7.872 4.38C7.84 3.996 7.816 3.576 7.8 3.12L9.96 3C9.968 3.472 9.992 3.908 10.032 4.308C11.84 4.236 12.776 4.2 12.84 4.2L12.9 6.12C12.652 6.128 12.384 6.14 12.096 6.156C11.816 6.164 11.5 6.176 11.148 6.192C10.804 6.208 10.536 6.22 10.344 6.228C10.56 7.044 10.992 7.968 11.64 9L9.54 9.9C8.772 9.46 7.992 9.24 7.2 9.24C6.768 9.24 6.44 9.324 6.216 9.492C5.992 9.66 5.88 9.896 5.88 10.2C5.88 10.616 6.08 10.94 6.48 11.172C6.88 11.404 7.48 11.52 8.28 11.52C8.624 11.52 9.1 11.484 9.708 11.412C10.324 11.34 10.848 11.256 11.28 11.16L11.64 13.08C10.592 13.32 9.472 13.44 8.28 13.44C6.784 13.44 5.628 13.144 4.812 12.552C4.004 11.952 3.6 11.128 3.6 10.08C3.6 9.24 3.904 8.572 4.512 8.076C5.12 7.572 5.976 7.32 7.08 7.32C7.488 7.32 7.964 7.384 8.508 7.512L8.532 7.488C8.372 7.08 8.248 6.68 8.16 6.288C6.432 6.336 4.712 6.36 3 6.36Z" fill="#FF9933"/>
</svg>
