<svg width="16" height="17" viewBox="0 0 16 17" fill="none" xmlns="http://www.w3.org/2000/svg">
<style>
  #fg { fill: #2E3440; }

  @media (prefers-color-scheme: dark) {
    /* dark theme styles */
    #fg { fill: #ECEFF4; }
  }
</style>
<path id="fg" fill-rule="evenodd" clip-rule="evenodd" d="M7.662 8.58915C5.39 8.58915 4.254 7.78115 4.254 6.16515C4.254 5.23715 4.562 4.58515 5.178 4.20915C5.802 3.84115 6.67 3.65715 7.782 3.65715C8.902 3.65715 9.89 3.87315 10.746 4.30515C10.97 4.78515 11.082 5.40515 11.082 6.16515C11.082 7.78115 9.942 8.58915 7.662 8.58915ZM10.878 3.34515C10.118 2.76915 9.034 2.48115 7.626 2.48115C6.218 2.48115 5.15 2.76915 4.422 3.34515C3.694 3.92915 3.33 4.85315 3.33 6.11715C3.33 7.38915 3.722 8.31315 4.506 8.88915C5.29 9.47315 6.39 9.76515 7.806 9.76515C9.222 9.76515 10.278 9.49315 10.974 8.94915C11.678 8.41315 12.03 7.48915 12.03 6.17715C12.03 4.87315 11.646 3.92915 10.878 3.34515ZM9.614 12.9651L12.266 12.9171C12.73 13.8291 13.006 14.3371 13.094 14.4411C13.278 14.3771 13.47 14.2931 13.67 14.1891C13.654 13.9971 13.446 13.2851 13.046 12.0531C13.006 11.9971 12.898 11.9331 12.722 11.8611C12.554 11.7891 12.434 11.7491 12.362 11.7411L9.746 12.1611C9.706 12.1371 9.498 11.9211 9.122 11.5131C8.754 11.1051 8.506 10.8251 8.378 10.6731L8.042 10.6131C7.85 10.6131 7.71 10.6331 7.622 10.6731C7.494 10.8251 7.242 11.1051 6.866 11.5131C6.498 11.9211 6.294 12.1371 6.254 12.1611L3.638 11.7411C3.566 11.7491 3.446 11.7891 3.278 11.8611C3.102 11.9331 2.994 11.9971 2.954 12.0531C2.554 13.2851 2.346 13.9971 2.33 14.1891C2.53 14.2931 2.722 14.3771 2.906 14.4411C2.994 14.3371 3.27 13.8291 3.734 12.9171L6.386 12.9651C6.874 12.9651 7.35 12.4011 7.814 11.2731H8.186C8.65 12.4011 9.126 12.9651 9.614 12.9651Z" fill="#81A1C1"/>
</svg>
