<svg width="10" height="11" viewBox="0 0 10 11" fill="none" xmlns="http://www.w3.org/2000/svg">
<path d="M0 3.36V1.44C1.432 1.44 3.056 1.42 4.872 1.38C4.84 0.996 4.816 0.576 4.8 0.120001L6.96 0C6.968 0.472 6.992 0.908 7.032 1.308C8.84 1.236 9.776 1.2 9.84 1.2L9.9 3.12C9.652 3.128 9.384 3.14 9.096 3.156C8.816 3.164 8.5 3.176 8.148 3.192C7.804 3.208 7.536 3.22 7.344 3.228C7.56 4.044 7.992 4.968 8.64 6L6.54 6.9C5.772 6.46 4.992 6.24 4.2 6.24C3.768 6.24 3.44 6.324 3.216 6.492C2.992 6.66 2.88 6.896 2.88 7.2C2.88 7.616 3.08 7.94 3.48 8.172C3.88 8.404 4.48 8.52 5.28 8.52C5.624 8.52 6.1 8.484 6.708 8.412C7.324 8.34 7.848 8.256 8.28 8.16L8.64 10.08C7.592 10.32 6.472 10.44 5.28 10.44C3.784 10.44 2.628 10.144 1.812 9.552C1.004 8.952 0.6 8.128 0.6 7.08C0.6 6.24 0.904 5.572 1.512 5.076C2.12 4.572 2.976 4.32 4.08 4.32C4.488 4.32 4.964 4.384 5.508 4.512L5.532 4.488C5.372 4.08 5.248 3.68 5.16 3.288C3.432 3.336 1.712 3.36 0 3.36Z" fill="#FF9933"/>
</svg>
