<?xml version="1.0" encoding="UTF-8"?>
<!DOCTYPE svg PUBLIC "-//W3C//DTD SVG 1.1//EN" "http://www.w3.org/Graphics/SVG/1.1/DTD/svg11.dtd">
<svg xmlns="http://www.w3.org/2000/svg" version="1.1" width="172px" height="268px" style="shape-rendering:geometricPrecision; text-rendering:geometricPrecision; image-rendering:optimizeQuality; fill-rule:evenodd; clip-rule:evenodd" xmlns:xlink="http://www.w3.org/1999/xlink">
<g><path style="opacity:1" fill="#000000" d="M -0.5,-0.5 C 56.8333,-0.5 114.167,-0.5 171.5,-0.5C 171.5,88.8333 171.5,178.167 171.5,267.5C 114.167,267.5 56.8333,267.5 -0.5,267.5C -0.5,178.167 -0.5,88.8333 -0.5,-0.5 Z M 159.5,15.5 C 158.167,15.5 156.833,15.5 155.5,15.5C 108.833,15.5 62.1667,15.5 15.5,15.5C 14.1667,15.5 12.8333,15.5 11.5,15.5C 11.5,14.1667 11.5,12.8333 11.5,11.5C 60.8333,11.5 110.167,11.5 159.5,11.5C 159.5,12.8333 159.5,14.1667 159.5,15.5 Z"/></g>
<g><path style="opacity:1" fill="#fefefe" d="M 11.5,15.5 C 12.8333,15.5 14.1667,15.5 15.5,15.5C 15.5,19.5 15.5,23.5 15.5,27.5C 36.8333,27.5 58.1667,27.5 79.5,27.5C 79.5,38.1667 79.5,48.8333 79.5,59.5C 83.5,59.5 87.5,59.5 91.5,59.5C 91.5,48.8333 91.5,38.1667 91.5,27.5C 112.833,27.5 134.167,27.5 155.5,27.5C 155.5,23.5 155.5,19.5 155.5,15.5C 156.833,15.5 158.167,15.5 159.5,15.5C 159.5,95.5 159.5,175.5 159.5,255.5C 110.167,255.5 60.8333,255.5 11.5,255.5C 11.5,175.5 11.5,95.5 11.5,15.5 Z"/></g>
<g><path style="opacity:1" fill="#000000" d="M 15.5,15.5 C 62.1667,15.5 108.833,15.5 155.5,15.5C 155.5,19.5 155.5,23.5 155.5,27.5C 134.167,27.5 112.833,27.5 91.5,27.5C 91.5,38.1667 91.5,48.8333 91.5,59.5C 87.5,59.5 83.5,59.5 79.5,59.5C 79.5,48.8333 79.5,38.1667 79.5,27.5C 58.1667,27.5 36.8333,27.5 15.5,27.5C 15.5,23.5 15.5,19.5 15.5,15.5 Z"/></g>
<g><path style="opacity:1" fill="#000000" d="M 15.5,31.5 C 35.5,31.5 55.5,31.5 75.5,31.5C 75.5,40.8333 75.5,50.1667 75.5,59.5C 71.5,59.5 67.5,59.5 63.5,59.5C 63.5,54.1667 63.5,48.8333 63.5,43.5C 47.5,43.5 31.5,43.5 15.5,43.5C 15.5,39.5 15.5,35.5 15.5,31.5 Z"/></g>
<g><path style="opacity:1" fill="#000000" d="M 95.5,31.5 C 115.5,31.5 135.5,31.5 155.5,31.5C 155.5,35.5 155.5,39.5 155.5,43.5C 139.5,43.5 123.5,43.5 107.5,43.5C 107.5,48.8333 107.5,54.1667 107.5,59.5C 103.5,59.5 99.5,59.5 95.5,59.5C 95.5,50.1667 95.5,40.8333 95.5,31.5 Z"/></g>
<g><path style="opacity:1" fill="#000000" d="M 15.5,47.5 C 30.1667,47.5 44.8333,47.5 59.5,47.5C 59.5,51.5 59.5,55.5 59.5,59.5C 44.8333,59.5 30.1667,59.5 15.5,59.5C 15.5,55.5 15.5,51.5 15.5,47.5 Z"/></g>
<g><path style="opacity:1" fill="#000000" d="M 111.5,47.5 C 126.167,47.5 140.833,47.5 155.5,47.5C 155.5,51.5 155.5,55.5 155.5,59.5C 140.833,59.5 126.167,59.5 111.5,59.5C 111.5,55.5 111.5,51.5 111.5,47.5 Z"/></g>
<g><path style="opacity:1" fill="#000000" d="M 15.5,63.5 C 62.1667,63.5 108.833,63.5 155.5,63.5C 155.5,78.1667 155.5,92.8333 155.5,107.5C 108.833,107.5 62.1667,107.5 15.5,107.5C 15.5,92.8333 15.5,78.1667 15.5,63.5 Z"/></g>
<g><path style="opacity:1" fill="#fefefe" d="M 27.5,75.5 C 66.1667,75.5 104.833,75.5 143.5,75.5C 143.5,82.1667 143.5,88.8333 143.5,95.5C 104.833,95.5 66.1667,95.5 27.5,95.5C 27.5,88.8333 27.5,82.1667 27.5,75.5 Z"/></g>
<g><path style="opacity:1" fill="#000000" d="M 31.5,79.5 C 67.5,79.5 103.5,79.5 139.5,79.5C 139.5,83.5 139.5,87.5 139.5,91.5C 103.5,91.5 67.5,91.5 31.5,91.5C 31.5,87.5 31.5,83.5 31.5,79.5 Z"/></g>
<g><path style="opacity:1" fill="#000000" d="M 15.5,111.5 C 62.1667,111.5 108.833,111.5 155.5,111.5C 155.5,126.167 155.5,140.833 155.5,155.5C 151.5,155.5 147.5,155.5 143.5,155.5C 143.5,144.833 143.5,134.167 143.5,123.5C 126.167,123.5 108.833,123.5 91.5,123.5C 91.5,128.833 91.5,134.167 91.5,139.5C 87.5,139.5 83.5,139.5 79.5,139.5C 79.5,134.167 79.5,128.833 79.5,123.5C 62.1667,123.5 44.8333,123.5 27.5,123.5C 27.5,134.167 27.5,144.833 27.5,155.5C 23.5,155.5 19.5,155.5 15.5,155.5C 15.5,140.833 15.5,126.167 15.5,111.5 Z"/></g>
<g><path style="opacity:1" fill="#000000" d="M 31.5,127.5 C 46.1667,127.5 60.8333,127.5 75.5,127.5C 75.5,132.833 75.5,138.167 75.5,143.5C 82.1667,143.5 88.8333,143.5 95.5,143.5C 95.5,138.167 95.5,132.833 95.5,127.5C 110.167,127.5 124.833,127.5 139.5,127.5C 139.5,136.833 139.5,146.167 139.5,155.5C 135.5,155.5 131.5,155.5 127.5,155.5C 127.5,150.167 127.5,144.833 127.5,139.5C 120.833,139.5 114.167,139.5 107.5,139.5C 107.5,144.833 107.5,150.167 107.5,155.5C 92.8333,155.5 78.1667,155.5 63.5,155.5C 63.5,150.167 63.5,144.833 63.5,139.5C 56.8333,139.5 50.1667,139.5 43.5,139.5C 43.5,144.833 43.5,150.167 43.5,155.5C 39.5,155.5 35.5,155.5 31.5,155.5C 31.5,146.167 31.5,136.833 31.5,127.5 Z"/></g>
<g><path style="opacity:1" fill="#000000" d="M 47.5,143.5 C 51.5,143.5 55.5,143.5 59.5,143.5C 59.5,147.5 59.5,151.5 59.5,155.5C 55.5,155.5 51.5,155.5 47.5,155.5C 47.5,151.5 47.5,147.5 47.5,143.5 Z"/></g>
<g><path style="opacity:1" fill="#000000" d="M 111.5,143.5 C 115.5,143.5 119.5,143.5 123.5,143.5C 123.5,147.5 123.5,151.5 123.5,155.5C 119.5,155.5 115.5,155.5 111.5,155.5C 111.5,151.5 111.5,147.5 111.5,143.5 Z"/></g>
<g><path style="opacity:1" fill="#000000" d="M 15.5,159.5 C 62.1667,159.5 108.833,159.5 155.5,159.5C 155.5,174.167 155.5,188.833 155.5,203.5C 151.5,203.5 147.5,203.5 143.5,203.5C 143.5,198.167 143.5,192.833 143.5,187.5C 104.833,187.5 66.1667,187.5 27.5,187.5C 27.5,192.833 27.5,198.167 27.5,203.5C 23.5,203.5 19.5,203.5 15.5,203.5C 15.5,188.833 15.5,174.167 15.5,159.5 Z"/></g>
<g><path style="opacity:1" fill="#fefefe" d="M 27.5,171.5 C 66.1667,171.5 104.833,171.5 143.5,171.5C 143.5,172.833 143.5,174.167 143.5,175.5C 104.833,175.5 66.1667,175.5 27.5,175.5C 27.5,174.167 27.5,172.833 27.5,171.5 Z"/></g>
<g><path style="opacity:1" fill="#000000" d="M 31.5,191.5 C 67.5,191.5 103.5,191.5 139.5,191.5C 139.5,195.5 139.5,199.5 139.5,203.5C 103.5,203.5 67.5,203.5 31.5,203.5C 31.5,199.5 31.5,195.5 31.5,191.5 Z"/></g>
<g><path style="opacity:1" fill="#000000" d="M 15.5,207.5 C 62.1667,207.5 108.833,207.5 155.5,207.5C 155.5,211.5 155.5,215.5 155.5,219.5C 112.833,219.5 70.1667,219.5 27.5,219.5C 27.5,220.833 27.5,222.167 27.5,223.5C 70.1667,223.5 112.833,223.5 155.5,223.5C 155.5,232.833 155.5,242.167 155.5,251.5C 108.833,251.5 62.1667,251.5 15.5,251.5C 15.5,247.5 15.5,243.5 15.5,239.5C 58.1667,239.5 100.833,239.5 143.5,239.5C 143.5,238.167 143.5,236.833 143.5,235.5C 100.833,235.5 58.1667,235.5 15.5,235.5C 15.5,226.167 15.5,216.833 15.5,207.5 Z"/></g>
</svg>
